<?xml version="1.0" encoding="UTF-8" standalone="no"?>
<svg
   xmlns:dc="http://purl.org/dc/elements/1.1/"
   xmlns:cc="http://creativecommons.org/ns#"
   xmlns:rdf="http://www.w3.org/1999/02/22-rdf-syntax-ns#"
   xmlns:svg="http://www.w3.org/2000/svg"
   xmlns="http://www.w3.org/2000/svg"
   xmlns:sodipodi="http://sodipodi.sourceforge.net/DTD/sodipodi-0.dtd"
   xmlns:inkscape="http://www.inkscape.org/namespaces/inkscape"
   width="181.1011mm"
   height="181.60376mm"
   viewBox="0 0 181.1011 181.60376"
   version="1.1"
   id="svg8"
   inkscape:version="1.0.1 (3bc2e813f5, 2020-09-07)"
   sodipodi:docname="logo with stars white on black.svg">
  <defs
     id="defs2">
    <rect
       x="52.160713"
       y="27.214287"
       width="113.39286"
       height="86.178574"
       id="rect12" />
  </defs>
  <sodipodi:namedview
     id="base"
     pagecolor="#ffffff"
     bordercolor="#666666"
     borderopacity="1.0"
     inkscape:pageopacity="0.0"
     inkscape:pageshadow="2"
     inkscape:zoom="1.0574425"
     inkscape:cx="316.90047"
     inkscape:cy="354.72637"
     inkscape:document-units="mm"
     inkscape:current-layer="layer4"
     inkscape:document-rotation="0"
     showgrid="false"
     inkscape:snap-to-guides="true"
     showguides="true"
     inkscape:window-width="2560"
     inkscape:window-height="1377"
     inkscape:window-x="-8"
     inkscape:window-y="-8"
     inkscape:window-maximized="1"
     inkscape:snap-page="false"
     inkscape:guide-bbox="true"
     fit-margin-top="0"
     fit-margin-left="0"
     fit-margin-right="0"
     fit-margin-bottom="0" />
  <metadata
     id="metadata5">
    <rdf:RDF>
      <cc:Work
         rdf:about="">
        <dc:format>image/svg+xml</dc:format>
        <dc:type
           rdf:resource="http://purl.org/dc/dcmitype/StillImage" />
        <dc:title></dc:title>
      </cc:Work>
    </rdf:RDF>
  </metadata>
  <g
     inkscape:groupmode="layer"
     id="layer4"
     inkscape:label="Layer 0"
     style="display:inline"
     transform="translate(-21.153418,-4.2636585)">
    <rect
       style="display:inline;fill:#000000;stroke:#333333;stroke-width:0.179862"
       id="rect410"
       width="180.92125"
       height="181.4239"
       x="21.243349"
       y="4.3535895" />
  </g>
  <g
     inkscape:label="Layer 1"
     inkscape:groupmode="layer"
     id="layer1"
     transform="translate(-21.153418,-4.2636585)">
    <path
       id="text10"
       style="font-style:normal;font-weight:normal;font-size:10.5833px;line-height:1.25;font-family:sans-serif;white-space:pre;shape-inside:url(#rect12);fill:#ffffff;fill-opacity:1;stroke:none;stroke-width:12.2462"
       d="M 119.60291,78.523097 C 106.34619,106.68695 93.089474,134.8508 79.832756,163.01465 c 4.72288,0.0125 9.44576,0.0251 14.16864,0.0376 3.575828,-7.84997 7.151654,-15.69993 10.727484,-23.5499 15.13189,0.0401 30.26379,0.0802 45.39568,0.12027 3.28507,7.868 6.57014,15.73601 9.85521,23.60401 4.95784,0.013 9.91567,0.0261 14.87351,0.0391 -11.67437,-26.91485 -23.28275,-53.9565 -34.99828,-80.792286 -1.86165,-0.829644 -4.2776,-1.627915 -6.32758,-2.604526 -0.57244,-0.287415 -1.25319,-0.714893 -1.74685,-0.821362 -1.28244,-1.022187 -3.36057,-0.289671 -5.00858,-0.513614 -2.3897,-0.0036 -4.77939,-0.0072 -7.16908,-0.01084 z m 12.96872,0.372343 c 0.0475,0.03257 0.036,0.0014 0,0 z m 0.95343,0.540226 c 0.0168,0.02845 0.0464,-0.006 0,0 z m 6.12934,2.943673 c -4.5e-4,0.0017 0.003,-9.97e-4 0,0 z m 0.0558,0.02606 c 0.002,0.0052 0.003,-0.0016 0,0 z m 0.005,0.0021 c 3.3e-4,0.0036 0.005,-5.71e-4 0,0 z m 0.0176,0.0095 c -2.6e-4,0.0016 0.002,-2.76e-4 0,0 z m -11.35952,5.957999 c 5.87665,13.859422 11.75329,27.718842 17.62994,41.578262 -12.28883,-0.0326 -24.57766,-0.0651 -36.86649,-0.0977 6.41218,-13.82685 12.82437,-27.65371 19.23655,-41.480562 z" />
    <g
       aria-label="T"
       transform="matrix(0.95860405,0.43219583,-0.41005255,0.85830745,0,0)"
       id="text18"
       style="font-style:normal;font-weight:normal;font-size:116.675px;line-height:1.25;font-family:sans-serif;fill:#ffffff;fill-opacity:1;stroke:none;stroke-width:2.91688">
      <path
         id="path467"
         style="fill:#ffffff;stroke-width:2.91688"
         d="m 177.03814,28.64525 c -10.10272,0 -20.20543,0 -30.30815,0 0,24.933963 0,49.867927 0,74.80189 -3.76003,0 -7.52007,0 -11.2801,0 0,-24.933963 0,-49.867927 0,-74.80189 -10.10272,0 -20.20544,0 -30.30816,0 0,-3.342253 0,-6.684506 0,-10.026759 23.96547,0 47.93094,0 71.89641,0 0,3.342253 0,6.684506 0,10.026759 z" />
    </g>
  </g>
  <g
     inkscape:groupmode="layer"
     id="layer3"
     inkscape:label="Layer 1.5"
     transform="translate(-21.153418,-4.2636585)" />
  <g
     inkscape:groupmode="layer"
     id="layer2"
     inkscape:label="Layer 2"
     style="display:inline"
     transform="translate(-21.153418,-4.2636585)">
    <path
       sodipodi:type="star"
       style="fill:#ffff00;fill-rule:evenodd;stroke-width:0.264583"
       id="path377"
       sodipodi:sides="5"
       sodipodi:cx="123.03125"
       sodipodi:cy="50.535416"
       sodipodi:r1="10.714808"
       sodipodi:r2="5.3574042"
       sodipodi:arg1="-0.35299039"
       sodipodi:arg2="0.27532814"
       inkscape:flatsided="false"
       inkscape:rounded="0"
       inkscape:randomized="0"
       d="m 133.08542,46.831249 -4.89855,5.160645 1.47416,6.960952 -6.4218,-3.064065 -6.16472,3.553059 0.92966,-7.054341 -5.28417,-4.76504 6.99636,-1.295759 2.89893,-6.498016 3.39433,6.253519 z"
       inkscape:transform-center-x="0.12854006"
       inkscape:transform-center-y="-0.90015405" />
    <path
       sodipodi:type="star"
       style="fill:#ffff00;fill-rule:evenodd;stroke-width:0.264583"
       id="path379"
       sodipodi:sides="5"
       sodipodi:cx="106.89167"
       sodipodi:cy="32.014584"
       sodipodi:r1="5.9162631"
       sodipodi:r2="2.9581316"
       sodipodi:arg1="1.1071487"
       sodipodi:arg2="1.7354672"
       inkscape:flatsided="false"
       inkscape:rounded="0"
       inkscape:randomized="0"
       d="m 109.5375,37.30625 -3.13075,-2.373551 -3.73015,1.233437 1.28993,-3.710991 -2.32575,-3.166428 3.92797,0.08003 2.29276,-3.190396 1.13769,3.760454 3.74275,1.194653 -3.22484,2.244056 z"
       inkscape:transform-center-x="-0.29969633"
       inkscape:transform-center-y="-0.27228244" />
    <path
       sodipodi:type="star"
       style="fill:#ffff00;fill-rule:evenodd;stroke-width:0.219897"
       id="path377-4"
       sodipodi:sides="5"
       sodipodi:cx="29.078707"
       sodipodi:cy="61.935638"
       sodipodi:r1="8.9051485"
       sodipodi:r2="4.4525743"
       sodipodi:arg1="-0.35299039"
       sodipodi:arg2="0.27532814"
       inkscape:flatsided="false"
       inkscape:rounded="0"
       inkscape:randomized="0"
       d="m 37.434792,58.857081 -4.071213,4.289046 1.225182,5.785294 -5.337199,-2.546565 -5.123539,2.952971 0.772641,-5.86291 -4.391703,-3.960257 5.814719,-1.076913 2.409317,-5.400544 2.821052,5.197341 z"
       inkscape:transform-center-x="0.70881224"
       inkscape:transform-center-y="-0.14755501"
       transform="rotate(-12.70149,97.324169,-58.4623)" />
    <circle
       style="fill:#e6e6e6;stroke:#ffffff;stroke-width:0.264583"
       id="path400"
       cx="85.861572"
       cy="25.596958"
       r="20"
       transform="rotate(10.961001)" />
    <ellipse
       style="fill:#000000;stroke:#000000;stroke-width:0.243705"
       id="path402"
       cx="93.109413"
       cy="26.919872"
       rx="15.592651"
       ry="19.589605"
       transform="rotate(10.961001)" />
  </g>
</svg>
